User Type,Username,Date,Text
,arian25,2010-11-01T01:13Z,Why mpg format? It's so outdated. I wish they were in mp4 or wmv format. Btw what's the video resolution of these files?
[M],SteRipper,2010-11-02T06:01Z,"@arian25 It's not an outdated format - I've got the MPEG's because just about EVERY PC in the world can play that format with ease.

Also, the Video Bitrate is one each one is nearly 2,000 Kbps - The Quality is Excellent."
,BurnerTom,2011-02-05T13:24Z,"zzs_lb_ep1-sd169.mpg

Format                           : MPEG Video
Format version                   : Version 1
Format settings, BVOP            : No
Format settings, Matrix          : Default
Duration                         : 24mn 58s
Bit rate mode                    : Variable
Bit rate                         : 1 772 Kbps
Width                            : 768 pixels
Height                           : 432 pixels
Display aspect ratio             : 16:9
Frame rate                       : 23.976 fps
Color space                      : YUV
Bit depth                        : 8 bits
Scan type                        : Progressive
Compression mode                 : Lossy
Bits/(Pixel*Frame)               : 0.223
Stream size                      : 317 MiB (91%)

Format                           : MPEG Audio
Format version                   : Version 1
Format profile                   : Layer 2
Duration                         : 24mn 58s
Bit rate mode                    : Constant
Bit rate                         : 128 Kbps
Channel(s)                       : 2 channels
Sampling rate                    : 48.0 KHz
Compression mode                 : Lossy
Stream size                      : 22.9 MiB (7%)"
